<svg xmlns="http://www.w3.org/2000/svg" width="53" height="35">
    <path fill="#FFF" fill-rule="evenodd" d="M43.504 35.014H32.298v-4.249c-2.717 2.625-6.408 4.249-10.473 4.249-4.139 0-7.888-1.681-10.619-4.387v4.387H0V14.267h7.812c2.231-5.566 7.664-9.513 14.012-9.513 4.065 0 7.755 1.625 10.472 4.251V-.006h11.206v23.784L53 23.78V35.014h-9.496zm-9.497-1.72h7.787v-3.046h-7.787v3.046zm1.83-7.803a15.083 15.083 0 0 1-1.647 3.046h7.604v-3.046h-5.957zm5.957-1.713l-.003-3.044h-4.91a15.198 15.198 0 0 1-.482 3.044h5.395zM1.708 33.294h7.788v-3.046H1.708v3.046zm.002-9.514h5.542a15.2 15.2 0 0 1-.484-3.044H1.71v3.044zm0-7.805l.002 3.046h5.06c.058-1.048.222-2.064.482-3.046H1.71zm0 9.516v3.046h7.752a15.21 15.21 0 0 1-1.646-3.046H1.71zM21.825 6.462c-7.382 0-13.387 6.019-13.387 13.415 0 7.398 6.005 13.417 13.387 13.417 7.383 0 13.395-6.019 13.395-13.417 0-7.397-6.008-13.415-13.395-13.415zm19.969-4.755h-7.787v3.044h7.787V1.707zm0 4.755h-7.787v3.046h7.787V6.462zm0 4.758H34.19a15.068 15.068 0 0 1 1.647 3.044h5.957V11.22zM36.4 15.979c.262.978.428 1.994.484 3.042h4.91l.004-3.042H36.4zm14.89 9.512h-7.788v3.046h7.788v-3.046zm0 4.757h-7.788v3.046h7.788v-3.046zm-29.465 1.189c-6.36 0-11.536-5.181-11.536-11.56 0-6.371 5.173-11.558 11.536-11.558 6.362 0 11.54 5.187 11.54 11.558 0 6.373-5.176 11.56-11.54 11.56zm0-21.403c-5.418 0-9.828 4.419-9.828 9.845 0 5.43 4.412 9.847 9.828 9.847 5.421 0 9.83-4.417 9.83-9.847 0-5.428-4.408-9.845-9.83-9.845zm-.661 9.109h1.327a2.728 2.728 0 0 1 2.725 2.729c0 .724-.28 1.408-.793 1.93a2.73 2.73 0 0 1-1.861.792v.866h-1.469v-.866a2.702 2.702 0 0 1-1.853-.789 2.735 2.735 0 0 1-.797-1.933h1.469c0 .336.132.654.369.896.234.229.551.36.885.36h1.326c.336 0 .653-.131.894-.368l-.006-1.776a1.252 1.252 0 0 0-.889-.367h-1.327a2.709 2.709 0 0 1-1.927-.797 2.736 2.736 0 0 1-.795-1.931c0-.73.282-1.415.792-1.932a2.72 2.72 0 0 1 1.857-.792v-.866h1.469v.867c.694.018 1.35.292 1.854.784.517.525.801 1.211.801 1.938h-1.469c0-.338-.131-.656-.369-.896a1.28 1.28 0 0 0-.888-.362h-1.326a1.253 1.253 0 0 0-1.252 1.259 1.249 1.249 0 0 0 1.253 1.254z" opacity=".502"/>
</svg>
