<svg xmlns="http://www.w3.org/2000/svg" width="2058" height="1016">
    <path fill="#1D2A57" fill-rule="evenodd" d="M6.233 1010.692l81.169-78.699 131.693 34.793 52.181-75.386 40.584-20.709 26.504 22.367 22.363-74.558 26.505 33.965 57.978-82.012 134.178 4.142 143.288-62.96 105.189 11.598 78.684-53.018 30.646 8.284 24.02-19.882 47.21 1.657 39.757-32.308 59.634-91.126 94.422 46.391 32.302-49.704 99.391 4.142 88.623-75.386 86.967 16.568 47.211-4.142 78.685-106.036 98.562 27.337 58.807-24.852 137.49-192.192 63.776 99.41 57.978-32.308V5H5.991l.242 1005.692z"/>
</svg>
